<svg height="1080pt" preserveAspectRatio="xMidYMid meet" viewBox="0 0 1080 1080" width="1080pt" xmlns="http://www.w3.org/2000/svg"><g transform="matrix(.1 0 0 -.1 0 1080)"><path d="m5105 10789c-555-29-1143-157-1675-364-927-363-1738-979-2342-1780-1074-1424-1372-3297-795-4990 482-1410 1526-2559 2887-3175 881-399 1902-556 2852-440 1482 182 2789 934 3680 2115 1074 1424 1372 3297 795 4990-512 1500-1664 2704-3137 3280-547 213-1114 335-1709 365-226 11-319 11-556-1zm1253-2328c138-128 252-237 252-241s-115-88-254-186c-140-99-254-182-253-186s250-165 552-358c303-193 551-354 553-358 1-5-230-165-513-357-466-315-515-351-498-363 10-7 107-70 216-139 108-69 197-129 197-134 0-4-109-108-242-231-134-122-266-244-294-271l-52-48-268 172c-148 94-274 173-280 176-6 2-161-97-344-221l-333-226-56 53c-31 29-165 153-298 276-134 122-243 226-243 230 0 5 114 89 254 187s254 182 253 186-249 165-552 358c-302 192-550 355-550 360s230 164 510 354c281 189 509 347 509 352-1 4-95 68-210 141-115 74-210 137-212 142s106 109 240 232 266 245 294 271l51 48 268-171c148-94 274-173 281-176 6-2 161 97 344 221l333 226 46-43c25-23 160-147 299-276zm10-3490c133-122 242-226 242-230 0-5-114-89-254-187s-254-182-253-186 250-165 552-358c303-192 550-355 550-360s-229-164-508-352c-279-189-508-347-508-353 0-5 94-70 208-143s209-136 211-141-106-109-240-232-266-245-294-271l-51-48-268 171c-148 94-274 173-281 176-6 2-161-97-344-221l-333-226-46 43c-421 389-551 510-551 517 0 4 115 88 254 186 140 99 254 182 253 186s-249 165-552 358c-302 193-551 354-553 358-1 5 230 165 513 357 466 315 515 351 498 363-10 7-107 70-215 139-109 69-198 129-198 134 0 4 109 108 243 231 133 122 265 244 293 271l52 48 268-172c148-94 274-173 280-176 6-2 161 97 344 221l333 226 56-53c31-29 165-153 299-276z"/><path d="m5249 7249c-79-56-150-106-156-113-10-9 23-34 144-111 86-55 162-101 169-103 11-3 329 217 322 223-14 13-320 205-327 205-4 0-73-45-152-101z"/><path d="m5232 3758c-85-60-152-111-150-113 2-1 75-49 163-105 157-101 160-103 186-87 42 23 301 209 297 212-20 18-322 205-331 204-7 0-81-50-165-111z"/></g></svg>